<svg xmlns="http://www.w3.org/2000/svg" xmlns:xlink="http://www.w3.org/1999/xlink" width="1050" height="581.04"><rect width="1050" height="581.04" rx="5" ry="5" class="a"/><svg y="0%" x="0%"><circle cx="20" cy="20" r="6" fill="#ff5f58"/><circle cx="40" cy="20" r="6" fill="#ffbd2e"/><circle cx="60" cy="20" r="6" fill="#18c132"/></svg><svg height="521.04" viewBox="0 0 101 52.104" width="1010" x="15" xmlns="http://www.w3.org/2000/svg" xmlns:xlink="http://www.w3.org/1999/xlink" y="50"><style>@keyframes r{0%{transform:translateX(0)}1.6%{transform:translateX(-101px)}1.7%{transform:translateX(-202px)}1.8%{transform:translateX(-303px)}2.1%{transform:translateX(-606px)}12.4%{transform:translateX(-909px)}16%{transform:translateX(-1111px)}16.7%{transform:translateX(-1313px)}18.6%{transform:translateX(-1616px)}20.8%{transform:translateX(-1919px)}26.9%{transform:translateX(-2222px)}30.8%{transform:translateX(-2424px)}30.9%{transform:translateX(-2525px)}32%{transform:translateX(-2727px)}33.9%{transform:translateX(-2929px)}35.3%{transform:translateX(-3131px)}36.8%{transform:translateX(-3333px)}37.7%{transform:translateX(-3535px)}38.6%{transform:translateX(-3737px)}39.5%{transform:translateX(-3939px)}42.2%{transform:translateX(-4545px)}42.3%{transform:translateX(-4646px)}42.9%{transform:translateX(-4949px)}43.6%{transform:translateX(-5151px)}44.2%{transform:translateX(-5353px)}44.9%{transform:translateX(-5555px)}45.5%{transform:translateX(-5757px)}46.2%{transform:translateX(-5959px)}46.8%{transform:translateX(-6161px)}47.5%{transform:translateX(-6363px)}48.1%{transform:translateX(-6565px)}48.8%{transform:translateX(-6767px)}49.5%{transform:translateX(-6969px)}50.1%{transform:translateX(-7171px)}50.8%{transform:translateX(-7777px)}58.4%{transform:translateX(-7979px)}59.8%{transform:translateX(-8181px)}61.9%{transform:translateX(-8484px)}71.1%{transform:translateX(-9595px)}72.7%{transform:translateX(-10403px)}73.3%{transform:translateX(-11110px)}77.8%{transform:translateX(-11312px)}78.6%{transform:translateX(-11413px)}78.7%{transform:translateX(-11514px)}79.4%{transform:translateX(-11716px)}to{transform:translateX(-11918px)}}.a{fill:#282d35}.f{fill:#b9c0cb}.g{fill:#a8cc8c}.h{fill:#b9bfca;font-weight:700}.i{fill:#66c2cd}.j{fill:#dbab79}.k{fill:#e88388;font-weight:700}.l{fill:#555}.n{fill:#b9c0cb;font-weight:700}.o{fill:#a8cc8c;text-decoration:underline}</style><g font-size="1.67" font-family="Monaco,Consolas,Menlo,'Bitstream Vera Sans Mono','Powerline Symbols',monospace"><defs><symbol id="1"><text y="1.67" class="f">Welcome</text><text x="8.016" y="1.67" class="f">to</text><text x="11.022" y="1.67" class="f">fish,</text><text x="17.034" y="1.67" class="f">the</text><text x="21.042" y="1.67" class="f">friendly</text><text x="30.06" y="1.67" class="f">interactive</text><text x="42.084" y="1.67" class="f">shell</text></symbol><symbol id="2"><text y="1.67" class="f">Type</text><text x="5.01" y="1.67" class="g">help</text><text x="10.02" y="1.67" class="f">for</text><text x="14.028" y="1.67" class="f">instructions</text><text x="27.054" y="1.67" class="f">on</text><text x="30.06" y="1.67" class="f">how</text><text x="34.068" y="1.67" class="f">to</text><text x="37.074" y="1.67" class="f">use</text><text x="41.082" y="1.67" class="f">fish</text></symbol><symbol id="3"><path class="g" d="M0 0h3v2.171H0z"/><text y="1.67" class="h">[I]</text><text x="4.008" y="1.67" class="i">⋊&gt;</text><text x="7.014" y="1.67" class="j">~/D/open-gh-page</text><text x="24.048" y="1.67" class="f">on</text><text x="27.054" y="1.67" class="g">master</text><text x="34.068" y="1.67" class="f">◦</text><text x="36.072" y="1.67" class="k">og</text><text x="38.076" y="1.67" class="l">hp</text><text x="93.186" y="1.67" class="l">22:54:02</text></symbol><symbol id="4"><path class="g" d="M0 0h3v2.171H0z"/><text y="1.67" class="h">[I]</text><text x="4.008" y="1.67" class="i">⋊&gt;</text><text x="7.014" y="1.67" class="j">~/D/open-gh-page</text><text x="24.048" y="1.67" class="f">on</text><text x="27.054" y="1.67" class="g">master</text><text x="34.068" y="1.67" class="f">◦</text><text x="36.072" y="1.67" class="k">ogh</text><text x="39.078" y="1.67" class="l">p</text><text x="93.186" y="1.67" class="l">22:54:02</text></symbol><symbol id="5"><path class="g" d="M0 0h3v2.171H0z"/><text y="1.67" class="h">[I]</text><text x="4.008" y="1.67" class="i">⋊&gt;</text><text x="7.014" y="1.67" class="j">~/D/open-gh-page</text><text x="24.048" y="1.67" class="f">on</text><text x="27.054" y="1.67" class="g">master</text><text x="34.068" y="1.67" class="f">◦</text><text x="36.072" y="1.67" class="k">oghp</text><text x="93.186" y="1.67" class="l">22:54:02</text></symbol><symbol id="6"><path class="g" d="M0 0h3v2.171H0z"/><text y="1.67" class="h">[I]</text><text x="4.008" y="1.67" class="i">⋊&gt;</text><text x="7.014" y="1.67" class="j">~/D/open-gh-page</text><text x="24.048" y="1.67" class="f">on</text><text x="27.054" y="1.67" class="g">master</text><text x="34.068" y="1.67" class="f">◦</text><text x="36.072" y="1.67" fill="#005fd7">oghp</text><text x="93.186" y="1.67" class="l">22:54:02</text></symbol><symbol id="7"><text y="1.67" class="g">?</text><text x="2.004" y="1.67" class="n">Provide</text><text x="10.02" y="1.67" class="n">a</text><text x="12.024" y="1.67" class="n">github</text><text x="19.038" y="1.67" class="n">username:</text></symbol><symbol id="8"><text y="1.67" class="g">?</text><text x="2.004" y="1.67" class="n">Provide</text><text x="10.02" y="1.67" class="n">a</text><text x="12.024" y="1.67" class="n">github</text><text x="19.038" y="1.67" class="n">username:</text><text x="29.058" y="1.67" class="f">z</text></symbol><symbol id="9"><text y="1.67" class="g">?</text><text x="2.004" y="1.67" class="n">Provide</text><text x="10.02" y="1.67" class="n">a</text><text x="12.024" y="1.67" class="n">github</text><text x="19.038" y="1.67" class="n">username:</text><text x="29.058" y="1.67" class="i">zillding</text></symbol><symbol id="10"><text y="1.67" class="i">⠋</text><text x="2.004" y="1.67" class="f">Fetching</text><text x="11.022" y="1.67" class="f">repos</text><text x="17.034" y="1.67" class="f">of</text><text x="20.04" y="1.67" class="o">zillding</text><text x="29.058" y="1.67" class="f">...</text></symbol><symbol id="11"><text y="1.67" class="i">⠙</text><text x="2.004" y="1.67" class="f">Fetching</text><text x="11.022" y="1.67" class="f">repos</text><text x="17.034" y="1.67" class="f">of</text><text x="20.04" y="1.67" class="o">zillding</text><text x="29.058" y="1.67" class="f">...</text></symbol><symbol id="12"><text y="1.67" class="i">⠹</text><text x="2.004" y="1.67" class="f">Fetching</text><text x="11.022" y="1.67" class="f">repos</text><text x="17.034" y="1.67" class="f">of</text><text x="20.04" y="1.67" class="o">zillding</text><text x="29.058" y="1.67" class="f">...</text></symbol><symbol id="13"><text y="1.67" class="g">?</text><text x="2.004" y="1.67" class="n">Select</text><text x="9.018" y="1.67" class="n">a</text><text x="11.022" y="1.67" class="n">github</text><text x="18.036" y="1.67" class="n">page:</text><text x="24.048" y="1.67" class="f">(Use</text><text x="29.058" y="1.67" class="f">arrow</text><text x="35.07" y="1.67" class="f">keys</text><text x="40.08" y="1.67" class="f">or</text><text x="43.086" y="1.67" class="f">type</text><text x="48.096" y="1.67" class="f">to</text><text x="51.102" y="1.67" class="f">search)</text></symbol><symbol id="14"><text y="1.67" class="i">❯</text><text x="2.004" y="1.67" class="i">css-color-app</text><text x="16.032" y="1.67" class="i">https://zillding.github.io/css-color-app/</text></symbol><symbol id="15"><text x="2.004" y="1.67" class="f">gif-finder</text><text x="13.026" y="1.67" class="f">https://zillding.github.io/gif-finder/</text></symbol><symbol id="16"><text x="2.004" y="1.67" class="f">js-playground</text><text x="16.032" y="1.67" class="f">https://zillding.github.io/js-playground/</text></symbol><symbol id="17"><text x="2.004" y="1.67" class="f">react-console</text><text x="16.032" y="1.67" class="f">https://zillding.github.io/react-console/</text></symbol><symbol id="18"><text x="2.004" y="1.67" class="f">react-echarts-component</text><text x="26.052" y="1.67" class="f">https://zillding.github.io/react-echarts-component/</text></symbol><symbol id="19"><text x="2.004" y="1.67" class="f">svg-to-url-app</text><text x="17.034" y="1.67" class="f">https://zillding.github.io/svg-to-url-app/</text></symbol><symbol id="20"><text x="2.004" y="1.67" class="f">zillding.github.io</text><text x="21.042" y="1.67" class="f">https://zillding.github.io/</text></symbol><symbol id="21"><text y="1.67" class="g">?</text><text x="2.004" y="1.67" class="n">Select</text><text x="9.018" y="1.67" class="n">a</text><text x="11.022" y="1.67" class="n">github</text><text x="18.036" y="1.67" class="n">page:</text></symbol><symbol id="22"><text x="2.004" y="1.67" class="f">css-color-app</text><text x="16.032" y="1.67" class="f">https://zillding.github.io/css-color-app/</text></symbol><symbol id="23"><text y="1.67" class="i">❯</text><text x="2.004" y="1.67" class="i">gif-finder</text><text x="13.026" y="1.67" class="i">https://zillding.github.io/gif-finder/</text></symbol><symbol id="24"><text y="1.67" class="i">❯</text><text x="2.004" y="1.67" class="i">js-playground</text><text x="16.032" y="1.67" class="i">https://zillding.github.io/js-playground/</text></symbol><symbol id="25"><text y="1.67" class="i">❯</text><text x="2.004" y="1.67" class="i">react-console</text><text x="16.032" y="1.67" class="i">https://zillding.github.io/react-console/</text></symbol><symbol id="26"><text y="1.67" class="g">?</text><text x="2.004" y="1.67" class="n">Select</text><text x="9.018" y="1.67" class="n">a</text><text x="11.022" y="1.67" class="n">github</text><text x="18.036" y="1.67" class="n">page:</text><text x="24.048" y="1.67" class="f">p</text></symbol><symbol id="27"><text x="2.004" y="1.67" class="f">Searching...</text></symbol><symbol id="28"><text y="1.67" class="g">?</text><text x="2.004" y="1.67" class="n">Select</text><text x="9.018" y="1.67" class="n">a</text><text x="11.022" y="1.67" class="n">github</text><text x="18.036" y="1.67" class="n">page:</text><text x="24.048" y="1.67" class="f">pl</text></symbol><symbol id="29"><text y="1.67" class="g">?</text><text x="2.004" y="1.67" class="n">Select</text><text x="9.018" y="1.67" class="n">a</text><text x="11.022" y="1.67" class="n">github</text><text x="18.036" y="1.67" class="n">page:</text><text x="24.048" y="1.67" class="f">pla</text></symbol><symbol id="30"><text y="1.67" class="g">?</text><text x="2.004" y="1.67" class="n">Select</text><text x="9.018" y="1.67" class="n">a</text><text x="11.022" y="1.67" class="n">github</text><text x="18.036" y="1.67" class="n">page:</text><text x="24.048" y="1.67" class="i">js-playground</text></symbol><symbol id="31"><path class="g" d="M0 0h3v2.171H0z"/><text y="1.67" class="h">[I]</text><text x="4.008" y="1.67" class="i">⋊&gt;</text><text x="7.014" y="1.67" class="j">~/D/open-gh-page</text><text x="24.048" y="1.67" class="f">on</text><text x="27.054" y="1.67" class="g">master</text><text x="34.068" y="1.67" class="f">◦</text><text x="93.186" y="1.67" class="l">22:54:12</text></symbol><symbol id="a"><path fill="transparent" d="M0 0h101v24H0z"/></symbol><symbol id="b"><path fill="#6f7683" d="M0 0h1.102v2.171H0z"/></symbol></defs><path class="a" d="M0 0h101v52.104H0z"/><g style="animation-duration:12.649438s;animation-iteration-count:infinite;animation-name:r;animation-timing-function:steps(1,end)"><svg width="12019"><svg><use xlink:href="#a"/><use xlink:href="#b" x="-.004"/></svg><svg x="101"><use xlink:href="#a"/><use xlink:href="#b" x="-.004"/></svg><svg x="202"><use xlink:href="#a"/><use xlink:href="#b" x="-.004" y="4.317"/><use xlink:href="#1"/><use xlink:href="#2" y="2.171"/></svg><svg x="303"><use xlink:href="#a"/><use xlink:href="#b" x="-.004" y="4.317"/><use xlink:href="#1"/><use xlink:href="#2" y="2.171"/></svg><svg x="404"><use xlink:href="#a"/><use xlink:href="#b" x="-.004" y="4.317"/><use xlink:href="#1"/><use xlink:href="#2" y="2.171"/></svg><svg x="505"><use xlink:href="#a"/><use xlink:href="#b" x="-.004" y="4.317"/><use xlink:href="#1"/><use xlink:href="#2" y="2.171"/></svg><svg x="606"><use xlink:href="#a"/><use xlink:href="#b" x="35.996" y="4.317"/><use xlink:href="#1"/><use xlink:href="#2" y="2.171"/><path class="g" d="M0 4.342h3v2.171H0z"/><text y="6.012" class="h">[I]</text><text x="4.008" y="6.012" class="i">⋊&gt;</text><text x="7.014" y="6.012" class="j">~/D/open-gh-page</text><text x="24.048" y="6.012" class="f">on</text><text x="27.054" y="6.012" class="g">master</text><text x="34.068" y="6.012" class="f">◦</text><text x="93.186" y="6.012" class="l">22:54:02</text></svg><svg x="707"><use xlink:href="#a"/><use xlink:href="#b" x="36.996" y="4.317"/><use xlink:href="#1"/><use xlink:href="#2" y="2.171"/><path class="g" d="M0 4.342h3v2.171H0z"/><text y="6.012" class="h">[I]</text><text x="4.008" y="6.012" class="i">⋊&gt;</text><text x="7.014" y="6.012" class="j">~/D/open-gh-page</text><text x="24.048" y="6.012" class="f">on</text><text x="27.054" y="6.012" class="g">master</text><text x="34.068" y="6.012" class="f">◦</text><text x="36.072" y="6.012" class="f">o</text><text x="93.186" y="6.012" class="l">22:54:02</text></svg><svg x="808"><use xlink:href="#a"/><use xlink:href="#b" x="36.996" y="4.317"/><use xlink:href="#1"/><use xlink:href="#2" y="2.171"/><path class="g" d="M0 4.342h3v2.171H0z"/><text y="6.012" class="h">[I]</text><text x="4.008" y="6.012" class="i">⋊&gt;</text><text x="7.014" y="6.012" class="j">~/D/open-gh-page</text><text x="24.048" y="6.012" class="f">on</text><text x="27.054" y="6.012" class="g">master</text><text x="34.068" y="6.012" class="f">◦</text><text x="36.072" y="6.012" class="k">o</text><text x="93.186" y="6.012" class="l">22:54:02</text></svg><svg x="909"><use xlink:href="#a"/><use xlink:href="#b" x="36.996" y="4.317"/><use xlink:href="#1"/><use xlink:href="#2" y="2.171"/><path class="g" d="M0 4.342h3v2.171H0z"/><text y="6.012" class="h">[I]</text><text x="4.008" y="6.012" class="i">⋊&gt;</text><text x="7.014" y="6.012" class="j">~/D/open-gh-page</text><text x="24.048" y="6.012" class="f">on</text><text x="27.054" y="6.012" class="g">master</text><text x="34.068" y="6.012" class="f">◦</text><text x="36.072" y="6.012" class="k">o</text><text x="37.074" y="6.012" class="l">ghp</text><text x="93.186" y="6.012" class="l">22:54:02</text></svg><svg x="1010"><use xlink:href="#a"/><use xlink:href="#b" x="37.996" y="4.317"/><use xlink:href="#1"/><use xlink:href="#2" y="2.171"/><use xlink:href="#3" y="4.342"/></svg><svg x="1111"><use xlink:href="#a"/><use xlink:href="#b" x="37.996" y="4.317"/><use xlink:href="#1"/><use xlink:href="#2" y="2.171"/><use xlink:href="#3" y="4.342"/></svg><svg x="1212"><use xlink:href="#a"/><use xlink:href="#b" x="38.996" y="4.317"/><use xlink:href="#1"/><use xlink:href="#2" y="2.171"/><use xlink:href="#4" y="4.342"/></svg><svg x="1313"><use xlink:href="#a"/><use xlink:href="#b" x="38.996" y="4.317"/><use xlink:href="#1"/><use xlink:href="#2" y="2.171"/><use xlink:href="#4" y="4.342"/></svg><svg x="1414"><use xlink:href="#a"/><use xlink:href="#b" x="39.996" y="4.317"/><use xlink:href="#1"/><use xlink:href="#2" y="2.171"/><use xlink:href="#5" y="4.342"/></svg><svg x="1515"><use xlink:href="#a"/><use xlink:href="#b" x="39.996" y="4.317"/><use xlink:href="#1"/><use xlink:href="#2" y="2.171"/><use xlink:href="#5" y="4.342"/></svg><svg x="1616"><use xlink:href="#a"/><use xlink:href="#b" x="39.996" y="4.317"/><use xlink:href="#1"/><use xlink:href="#2" y="2.171"/><use xlink:href="#6" y="4.342"/></svg><svg x="1717"><use xlink:href="#a"/><use xlink:href="#b" x="-.004" y="6.488"/><use xlink:href="#1"/><use xlink:href="#2" y="2.171"/><use xlink:href="#6" y="4.342"/></svg><svg x="1818"><use xlink:href="#a"/><use xlink:href="#b" x="-.004" y="6.488"/><use xlink:href="#1"/><use xlink:href="#2" y="2.171"/><use xlink:href="#6" y="4.342"/></svg><svg x="1919"><use xlink:href="#a"/><use xlink:href="#b" x="-.004" y="6.488"/><use xlink:href="#1"/><use xlink:href="#2" y="2.171"/><use xlink:href="#6" y="4.342"/></svg><svg x="2020"><use xlink:href="#a"/><use xlink:href="#b" x="28.996" y="6.488"/><use xlink:href="#1"/><use xlink:href="#2" y="2.171"/><use xlink:href="#6" y="4.342"/><use xlink:href="#7" y="6.513"/></svg><svg x="2121"><use xlink:href="#a"/><use xlink:href="#b" x="-.004" y="6.488"/><use xlink:href="#1"/><use xlink:href="#2" y="2.171"/><use xlink:href="#6" y="4.342"/><use xlink:href="#7" y="6.513"/></svg><svg x="2222"><use xlink:href="#a"/><use xlink:href="#b" x="28.996" y="6.488"/><use xlink:href="#1"/><use xlink:href="#2" y="2.171"/><use xlink:href="#6" y="4.342"/><use xlink:href="#7" y="6.513"/></svg><svg x="2323"><use xlink:href="#a"/><use xlink:href="#b" x="-.004" y="6.488"/><use xlink:href="#1"/><use xlink:href="#2" y="2.171"/><use xlink:href="#6" y="4.342"/></svg><svg x="2424"><use xlink:href="#a"/><use xlink:href="#b" x="29.996" y="6.488"/><use xlink:href="#1"/><use xlink:href="#2" y="2.171"/><use xlink:href="#6" y="4.342"/><use xlink:href="#8" y="6.513"/></svg><svg x="2525"><use xlink:href="#a"/><use xlink:href="#b" x="29.996" y="6.488"/><use xlink:href="#1"/><use xlink:href="#2" y="2.171"/><use xlink:href="#6" y="4.342"/><use xlink:href="#8" y="6.513"/></svg><svg x="2626"><use xlink:href="#a"/><use xlink:href="#b" x="-.004" y="6.488"/><use xlink:href="#1"/><use xlink:href="#2" y="2.171"/><use xlink:href="#6" y="4.342"/></svg><svg x="2727"><use xlink:href="#a"/><use xlink:href="#b" x="30.996" y="6.488"/><use xlink:href="#1"/><use xlink:href="#2" y="2.171"/><use xlink:href="#6" y="4.342"/><text y="8.183" class="g">?</text><text x="2.004" y="8.183" class="n">Provide</text><text x="10.02" y="8.183" class="n">a</text><text x="12.024" y="8.183" class="n">github</text><text x="19.038" y="8.183" class="n">username:</text><text x="29.058" y="8.183" class="f">zi</text></svg><svg x="2828"><use xlink:href="#a"/><use xlink:href="#b" x="-.004" y="6.488"/><use xlink:href="#1"/><use xlink:href="#2" y="2.171"/><use xlink:href="#6" y="4.342"/></svg><svg x="2929"><use xlink:href="#a"/><use xlink:href="#b" x="31.996" y="6.488"/><use xlink:href="#1"/><use xlink:href="#2" y="2.171"/><use xlink:href="#6" y="4.342"/><text y="8.183" class="g">?</text><text x="2.004" y="8.183" class="n">Provide</text><text x="10.02" y="8.183" class="n">a</text><text x="12.024" y="8.183" class="n">github</text><text x="19.038" y="8.183" class="n">username:</text><text x="29.058" y="8.183" class="f">zil</text></svg><svg x="3030"><use xlink:href="#a"/><use xlink:href="#b" x="-.004" y="6.488"/><use xlink:href="#1"/><use xlink:href="#2" y="2.171"/><use xlink:href="#6" y="4.342"/></svg><svg x="3131"><use xlink:href="#a"/><use xlink:href="#b" x="32.996" y="6.488"/><use xlink:href="#1"/><use xlink:href="#2" y="2.171"/><use xlink:href="#6" y="4.342"/><text y="8.183" class="g">?</text><text x="2.004" y="8.183" class="n">Provide</text><text x="10.02" y="8.183" class="n">a</text><text x="12.024" y="8.183" class="n">github</text><text x="19.038" y="8.183" class="n">username:</text><text x="29.058" y="8.183" class="f">zill</text></svg><svg x="3232"><use xlink:href="#a"/><use xlink:href="#b" x="-.004" y="6.488"/><use xlink:href="#1"/><use xlink:href="#2" y="2.171"/><use xlink:href="#6" y="4.342"/></svg><svg x="3333"><use xlink:href="#a"/><use xlink:href="#b" x="33.996" y="6.488"/><use xlink:href="#1"/><use xlink:href="#2" y="2.171"/><use xlink:href="#6" y="4.342"/><text y="8.183" class="g">?</text><text x="2.004" y="8.183" class="n">Provide</text><text x="10.02" y="8.183" class="n">a</text><text x="12.024" y="8.183" class="n">github</text><text x="19.038" y="8.183" class="n">username:</text><text x="29.058" y="8.183" class="f">zilld</text></svg><svg x="3434"><use xlink:href="#a"/><use xlink:href="#b" x="-.004" y="6.488"/><use xlink:href="#1"/><use xlink:href="#2" y="2.171"/><use xlink:href="#6" y="4.342"/></svg><svg x="3535"><use xlink:href="#a"/><use xlink:href="#b" x="34.996" y="6.488"/><use xlink:href="#1"/><use xlink:href="#2" y="2.171"/><use xlink:href="#6" y="4.342"/><text y="8.183" class="g">?</text><text x="2.004" y="8.183" class="n">Provide</text><text x="10.02" y="8.183" class="n">a</text><text x="12.024" y="8.183" class="n">github</text><text x="19.038" y="8.183" class="n">username:</text><text x="29.058" y="8.183" class="f">zilldi</text></svg><svg x="3636"><use xlink:href="#a"/><use xlink:href="#b" x="-.004" y="6.488"/><use xlink:href="#1"/><use xlink:href="#2" y="2.171"/><use xlink:href="#6" y="4.342"/></svg><svg x="3737"><use xlink:href="#a"/><use xlink:href="#b" x="35.996" y="6.488"/><use xlink:href="#1"/><use xlink:href="#2" y="2.171"/><use xlink:href="#6" y="4.342"/><text y="8.183" class="g">?</text><text x="2.004" y="8.183" class="n">Provide</text><text x="10.02" y="8.183" class="n">a</text><text x="12.024" y="8.183" class="n">github</text><text x="19.038" y="8.183" class="n">username:</text><text x="29.058" y="8.183" class="f">zilldin</text></svg><svg x="3838"><use xlink:href="#a"/><use xlink:href="#b" x="-.004" y="6.488"/><use xlink:href="#1"/><use xlink:href="#2" y="2.171"/><use xlink:href="#6" y="4.342"/></svg><svg x="3939"><use xlink:href="#a"/><use xlink:href="#b" x="36.996" y="6.488"/><use xlink:href="#1"/><use xlink:href="#2" y="2.171"/><use xlink:href="#6" y="4.342"/><text y="8.183" class="g">?</text><text x="2.004" y="8.183" class="n">Provide</text><text x="10.02" y="8.183" class="n">a</text><text x="12.024" y="8.183" class="n">github</text><text x="19.038" y="8.183" class="n">username:</text><text x="29.058" y="8.183" class="f">zillding</text></svg><svg x="4040"><use xlink:href="#a"/><use xlink:href="#b" x="-.004" y="6.488"/><use xlink:href="#1"/><use xlink:href="#2" y="2.171"/><use xlink:href="#6" y="4.342"/></svg><svg x="4141"><use xlink:href="#a"/><use xlink:href="#b" x="36.996" y="6.488"/><use xlink:href="#1"/><use xlink:href="#2" y="2.171"/><use xlink:href="#6" y="4.342"/><use xlink:href="#9" y="6.513"/></svg><svg x="4242"><use xlink:href="#a"/><use xlink:href="#b" x="-.004" y="6.488"/><use xlink:href="#1"/><use xlink:href="#2" y="2.171"/><use xlink:href="#6" y="4.342"/><use xlink:href="#9" y="6.513"/></svg><svg x="4343"><use xlink:href="#a"/><use xlink:href="#b" x="36.996" y="6.488"/><use xlink:href="#1"/><use xlink:href="#2" y="2.171"/><use xlink:href="#6" y="4.342"/><use xlink:href="#9" y="6.513"/></svg><svg x="4444"><use xlink:href="#a"/><use xlink:href="#b" x="-.004" y="8.659"/><use xlink:href="#1"/><use xlink:href="#2" y="2.171"/><use xlink:href="#6" y="4.342"/><use xlink:href="#9" y="6.513"/></svg><svg x="4545"><use xlink:href="#a"/><use xlink:href="#1"/><use xlink:href="#2" y="2.171"/><use xlink:href="#6" y="4.342"/><use xlink:href="#9" y="6.513"/></svg><svg x="4646"><use xlink:href="#a"/><use xlink:href="#1"/><use xlink:href="#2" y="2.171"/><use xlink:href="#6" y="4.342"/><use xlink:href="#9" y="6.513"/><use xlink:href="#10" y="8.684"/></svg><svg x="4747"><use xlink:href="#a"/><use xlink:href="#1"/><use xlink:href="#2" y="2.171"/><use xlink:href="#6" y="4.342"/><use xlink:href="#9" y="6.513"/></svg><svg x="4848"><use xlink:href="#a"/><use xlink:href="#1"/><use xlink:href="#2" y="2.171"/><use xlink:href="#6" y="4.342"/><use xlink:href="#9" y="6.513"/></svg><svg x="4949"><use xlink:href="#a"/><use xlink:href="#1"/><use xlink:href="#2" y="2.171"/><use xlink:href="#6" y="4.342"/><use xlink:href="#9" y="6.513"/><use xlink:href="#11" y="8.684"/></svg><svg x="5050"><use xlink:href="#a"/><use xlink:href="#1"/><use xlink:href="#2" y="2.171"/><use xlink:href="#6" y="4.342"/><use xlink:href="#9" y="6.513"/></svg><svg x="5151"><use xlink:href="#a"/><use xlink:href="#1"/><use xlink:href="#2" y="2.171"/><use xlink:href="#6" y="4.342"/><use xlink:href="#9" y="6.513"/><use xlink:href="#12" y="8.684"/></svg><svg x="5252"><use xlink:href="#a"/><use xlink:href="#1"/><use xlink:href="#2" y="2.171"/><use xlink:href="#6" y="4.342"/><use xlink:href="#9" y="6.513"/></svg><svg x="5353"><use xlink:href="#a"/><use xlink:href="#1"/><use xlink:href="#2" y="2.171"/><use xlink:href="#6" y="4.342"/><use xlink:href="#9" y="6.513"/><text y="10.354" class="i">⠸</text><text x="2.004" y="10.354" class="f">Fetching</text><text x="11.022" y="10.354" class="f">repos</text><text x="17.034" y="10.354" class="f">of</text><text x="20.04" y="10.354" class="o">zillding</text><text x="29.058" y="10.354" class="f">...</text></svg><svg x="5454"><use xlink:href="#a"/><use xlink:href="#1"/><use xlink:href="#2" y="2.171"/><use xlink:href="#6" y="4.342"/><use xlink:href="#9" y="6.513"/></svg><svg x="5555"><use xlink:href="#a"/><use xlink:href="#1"/><use xlink:href="#2" y="2.171"/><use xlink:href="#6" y="4.342"/><use xlink:href="#9" y="6.513"/><text y="10.354" class="i">⠼</text><text x="2.004" y="10.354" class="f">Fetching</text><text x="11.022" y="10.354" class="f">repos</text><text x="17.034" y="10.354" class="f">of</text><text x="20.04" y="10.354" class="o">zillding</text><text x="29.058" y="10.354" class="f">...</text></svg><svg x="5656"><use xlink:href="#a"/><use xlink:href="#1"/><use xlink:href="#2" y="2.171"/><use xlink:href="#6" y="4.342"/><use xlink:href="#9" y="6.513"/></svg><svg x="5757"><use xlink:href="#a"/><use xlink:href="#1"/><use xlink:href="#2" y="2.171"/><use xlink:href="#6" y="4.342"/><use xlink:href="#9" y="6.513"/><text y="10.354" class="i">⠴</text><text x="2.004" y="10.354" class="f">Fetching</text><text x="11.022" y="10.354" class="f">repos</text><text x="17.034" y="10.354" class="f">of</text><text x="20.04" y="10.354" class="o">zillding</text><text x="29.058" y="10.354" class="f">...</text></svg><svg x="5858"><use xlink:href="#a"/><use xlink:href="#1"/><use xlink:href="#2" y="2.171"/><use xlink:href="#6" y="4.342"/><use xlink:href="#9" y="6.513"/></svg><svg x="5959"><use xlink:href="#a"/><use xlink:href="#1"/><use xlink:href="#2" y="2.171"/><use xlink:href="#6" y="4.342"/><use xlink:href="#9" y="6.513"/><text y="10.354" class="i">⠦</text><text x="2.004" y="10.354" class="f">Fetching</text><text x="11.022" y="10.354" class="f">repos</text><text x="17.034" y="10.354" class="f">of</text><text x="20.04" y="10.354" class="o">zillding</text><text x="29.058" y="10.354" class="f">...</text></svg><svg x="6060"><use xlink:href="#a"/><use xlink:href="#1"/><use xlink:href="#2" y="2.171"/><use xlink:href="#6" y="4.342"/><use xlink:href="#9" y="6.513"/></svg><svg x="6161"><use xlink:href="#a"/><use xlink:href="#1"/><use xlink:href="#2" y="2.171"/><use xlink:href="#6" y="4.342"/><use xlink:href="#9" y="6.513"/><text y="10.354" class="i">⠧</text><text x="2.004" y="10.354" class="f">Fetching</text><text x="11.022" y="10.354" class="f">repos</text><text x="17.034" y="10.354" class="f">of</text><text x="20.04" y="10.354" class="o">zillding</text><text x="29.058" y="10.354" class="f">...</text></svg><svg x="6262"><use xlink:href="#a"/><use xlink:href="#1"/><use xlink:href="#2" y="2.171"/><use xlink:href="#6" y="4.342"/><use xlink:href="#9" y="6.513"/></svg><svg x="6363"><use xlink:href="#a"/><use xlink:href="#1"/><use xlink:href="#2" y="2.171"/><use xlink:href="#6" y="4.342"/><use xlink:href="#9" y="6.513"/><text y="10.354" class="i">⠇</text><text x="2.004" y="10.354" class="f">Fetching</text><text x="11.022" y="10.354" class="f">repos</text><text x="17.034" y="10.354" class="f">of</text><text x="20.04" y="10.354" class="o">zillding</text><text x="29.058" y="10.354" class="f">...</text></svg><svg x="6464"><use xlink:href="#a"/><use xlink:href="#1"/><use xlink:href="#2" y="2.171"/><use xlink:href="#6" y="4.342"/><use xlink:href="#9" y="6.513"/></svg><svg x="6565"><use xlink:href="#a"/><use xlink:href="#1"/><use xlink:href="#2" y="2.171"/><use xlink:href="#6" y="4.342"/><use xlink:href="#9" y="6.513"/><text y="10.354" class="i">⠏</text><text x="2.004" y="10.354" class="f">Fetching</text><text x="11.022" y="10.354" class="f">repos</text><text x="17.034" y="10.354" class="f">of</text><text x="20.04" y="10.354" class="o">zillding</text><text x="29.058" y="10.354" class="f">...</text></svg><svg x="6666"><use xlink:href="#a"/><use xlink:href="#1"/><use xlink:href="#2" y="2.171"/><use xlink:href="#6" y="4.342"/><use xlink:href="#9" y="6.513"/></svg><svg x="6767"><use xlink:href="#a"/><use xlink:href="#1"/><use xlink:href="#2" y="2.171"/><use xlink:href="#6" y="4.342"/><use xlink:href="#9" y="6.513"/><use xlink:href="#10" y="8.684"/></svg><svg x="6868"><use xlink:href="#a"/><use xlink:href="#1"/><use xlink:href="#2" y="2.171"/><use xlink:href="#6" y="4.342"/><use xlink:href="#9" y="6.513"/></svg><svg x="6969"><use xlink:href="#a"/><use xlink:href="#1"/><use xlink:href="#2" y="2.171"/><use xlink:href="#6" y="4.342"/><use xlink:href="#9" y="6.513"/><use xlink:href="#11" y="8.684"/></svg><svg x="7070"><use xlink:href="#a"/><use xlink:href="#1"/><use xlink:href="#2" y="2.171"/><use xlink:href="#6" y="4.342"/><use xlink:href="#9" y="6.513"/></svg><svg x="7171"><use xlink:href="#a"/><use xlink:href="#1"/><use xlink:href="#2" y="2.171"/><use xlink:href="#6" y="4.342"/><use xlink:href="#9" y="6.513"/><use xlink:href="#12" y="8.684"/></svg><svg x="7272"><use xlink:href="#a"/><use xlink:href="#1"/><use xlink:href="#2" y="2.171"/><use xlink:href="#6" y="4.342"/><use xlink:href="#9" y="6.513"/></svg><svg x="7373"><use xlink:href="#a"/><use xlink:href="#b" x="-.004" y="8.659"/><use xlink:href="#1"/><use xlink:href="#2" y="2.171"/><use xlink:href="#6" y="4.342"/><use xlink:href="#9" y="6.513"/></svg><svg x="7474"><use xlink:href="#a"/><use xlink:href="#b" x="48.996" y="23.856"/><use xlink:href="#1"/><use xlink:href="#2" y="2.171"/><use xlink:href="#6" y="4.342"/><use xlink:href="#9" y="6.513"/><use xlink:href="#13" y="8.684"/><use xlink:href="#14" y="10.855"/><use xlink:href="#15" y="13.026"/><use xlink:href="#16" y="15.197"/><use xlink:href="#17" y="17.368"/><use xlink:href="#18" y="19.539"/><use xlink:href="#19" y="21.71"/><use xlink:href="#20" y="23.881"/></svg><svg x="7575"><use xlink:href="#a"/><use xlink:href="#b" x="48.996" y="8.659"/><use xlink:href="#1"/><use xlink:href="#2" y="2.171"/><use xlink:href="#6" y="4.342"/><use xlink:href="#9" y="6.513"/><use xlink:href="#13" y="8.684"/><use xlink:href="#14" y="10.855"/><use xlink:href="#15" y="13.026"/><use xlink:href="#16" y="15.197"/><use xlink:href="#17" y="17.368"/><use xlink:href="#18" y="19.539"/><use xlink:href="#19" y="21.71"/><use xlink:href="#20" y="23.881"/></svg><svg x="7676"><use xlink:href="#a"/><use xlink:href="#b" x="-.004" y="8.659"/><use xlink:href="#1"/><use xlink:href="#2" y="2.171"/><use xlink:href="#6" y="4.342"/><use xlink:href="#9" y="6.513"/><use xlink:href="#13" y="8.684"/><use xlink:href="#14" y="10.855"/><use xlink:href="#15" y="13.026"/><use xlink:href="#16" y="15.197"/><use xlink:href="#17" y="17.368"/><use xlink:href="#18" y="19.539"/><use xlink:href="#19" y="21.71"/><use xlink:href="#20" y="23.881"/></svg><svg x="7777"><use xlink:href="#a"/><use xlink:href="#b" x="57.996" y="8.659"/><use xlink:href="#1"/><use xlink:href="#2" y="2.171"/><use xlink:href="#6" y="4.342"/><use xlink:href="#9" y="6.513"/><use xlink:href="#13" y="8.684"/><use xlink:href="#14" y="10.855"/><use xlink:href="#15" y="13.026"/><use xlink:href="#16" y="15.197"/><use xlink:href="#17" y="17.368"/><use xlink:href="#18" y="19.539"/><use xlink:href="#19" y="21.71"/><use xlink:href="#20" y="23.881"/></svg><svg x="7878"><use xlink:href="#a"/><use xlink:href="#b" x="57.996" y="23.856"/><use xlink:href="#1"/><use xlink:href="#2" y="2.171"/><use xlink:href="#6" y="4.342"/><use xlink:href="#9" y="6.513"/><use xlink:href="#13" y="8.684"/><use xlink:href="#14" y="10.855"/><use xlink:href="#15" y="13.026"/><use xlink:href="#16" y="15.197"/><use xlink:href="#17" y="17.368"/><use xlink:href="#18" y="19.539"/><use xlink:href="#19" y="21.71"/><use xlink:href="#20" y="23.881"/></svg><svg x="7979"><use xlink:href="#a"/><use xlink:href="#b" x="23.996" y="8.659"/><use xlink:href="#1"/><use xlink:href="#2" y="2.171"/><use xlink:href="#6" y="4.342"/><use xlink:href="#9" y="6.513"/><use xlink:href="#21" y="8.684"/><use xlink:href="#22" y="10.855"/><use xlink:href="#23" y="13.026"/><use xlink:href="#16" y="15.197"/><use xlink:href="#17" y="17.368"/><use xlink:href="#18" y="19.539"/><use xlink:href="#19" y="21.71"/><use xlink:href="#20" y="23.881"/></svg><svg x="8080"><use xlink:href="#a"/><use xlink:href="#b" x="23.996" y="23.856"/><use xlink:href="#1"/><use xlink:href="#2" y="2.171"/><use xlink:href="#6" y="4.342"/><use xlink:href="#9" y="6.513"/><use xlink:href="#21" y="8.684"/><use xlink:href="#22" y="10.855"/><use xlink:href="#23" y="13.026"/><use xlink:href="#16" y="15.197"/><use xlink:href="#17" y="17.368"/><use xlink:href="#18" y="19.539"/><use xlink:href="#19" y="21.71"/><use xlink:href="#20" y="23.881"/></svg><svg x="8181"><use xlink:href="#a"/><use xlink:href="#b" x="23.996" y="8.659"/><use xlink:href="#1"/><use xlink:href="#2" y="2.171"/><use xlink:href="#6" y="4.342"/><use xlink:href="#9" y="6.513"/><use xlink:href="#21" y="8.684"/><use xlink:href="#22" y="10.855"/><use xlink:href="#15" y="13.026"/><use xlink:href="#24" y="15.197"/><use xlink:href="#17" y="17.368"/><use xlink:href="#18" y="19.539"/><use xlink:href="#19" y="21.71"/><use xlink:href="#20" y="23.881"/></svg><svg x="8282"><use xlink:href="#a"/><use xlink:href="#b" x="23.996" y="23.856"/><use xlink:href="#1"/><use xlink:href="#2" y="2.171"/><use xlink:href="#6" y="4.342"/><use xlink:href="#9" y="6.513"/><use xlink:href="#21" y="8.684"/><use xlink:href="#22" y="10.855"/><use xlink:href="#15" y="13.026"/><use xlink:href="#24" y="15.197"/><use xlink:href="#17" y="17.368"/><use xlink:href="#18" y="19.539"/><use xlink:href="#19" y="21.71"/><use xlink:href="#20" y="23.881"/></svg><svg x="8383"><use xlink:href="#a"/><use xlink:href="#b" x="-.004" y="8.659"/><use xlink:href="#1"/><use xlink:href="#2" y="2.171"/><use xlink:href="#6" y="4.342"/><use xlink:href="#9" y="6.513"/><use xlink:href="#21" y="8.684"/><use xlink:href="#22" y="10.855"/><use xlink:href="#15" y="13.026"/><use xlink:href="#16" y="15.197"/><use xlink:href="#25" y="17.368"/><use xlink:href="#18" y="19.539"/><use xlink:href="#19" y="21.71"/><use xlink:href="#20" y="23.881"/></svg><svg x="8484"><use xlink:href="#a"/><use xlink:href="#b" x="23.996" y="8.659"/><use xlink:href="#1"/><use xlink:href="#2" y="2.171"/><use xlink:href="#6" y="4.342"/><use xlink:href="#9" y="6.513"/><use xlink:href="#21" y="8.684"/><use xlink:href="#22" y="10.855"/><use xlink:href="#15" y="13.026"/><use xlink:href="#16" y="15.197"/><use xlink:href="#25" y="17.368"/><use xlink:href="#18" y="19.539"/><use xlink:href="#19" y="21.71"/><use xlink:href="#20" y="23.881"/></svg><svg x="8585"><use xlink:href="#a"/><use xlink:href="#b" x="23.996" y="23.856"/><use xlink:href="#1"/><use xlink:href="#2" y="2.171"/><use xlink:href="#6" y="4.342"/><use xlink:href="#9" y="6.513"/><use xlink:href="#21" y="8.684"/><use xlink:href="#22" y="10.855"/><use xlink:href="#15" y="13.026"/><use xlink:href="#16" y="15.197"/><use xlink:href="#25" y="17.368"/><use xlink:href="#18" y="19.539"/><use xlink:href="#19" y="21.71"/><use xlink:href="#20" y="23.881"/></svg><svg x="8686"><use xlink:href="#a"/><use xlink:href="#b" x="-.004" y="8.659"/><use xlink:href="#1"/><use xlink:href="#2" y="2.171"/><use xlink:href="#6" y="4.342"/><use xlink:href="#9" y="6.513"/></svg><svg x="8787"><use xlink:href="#a"/><use xlink:href="#b" x="48.996" y="8.659"/><use xlink:href="#1"/><use xlink:href="#2" y="2.171"/><use xlink:href="#6" y="4.342"/><use xlink:href="#9" y="6.513"/><use xlink:href="#26" y="8.684"/><use xlink:href="#22" y="10.855"/><use xlink:href="#15" y="13.026"/><use xlink:href="#16" y="15.197"/><use xlink:href="#25" y="17.368"/><use xlink:href="#18" y="19.539"/><use xlink:href="#19" y="21.71"/><use xlink:href="#20" y="23.881"/></svg><svg x="8888"><use xlink:href="#a"/><use xlink:href="#b" x="24.996" y="8.659"/><use xlink:href="#1"/><use xlink:href="#2" y="2.171"/><use xlink:href="#6" y="4.342"/><use xlink:href="#9" y="6.513"/><use xlink:href="#26" y="8.684"/><use xlink:href="#22" y="10.855"/><use xlink:href="#15" y="13.026"/><use xlink:href="#16" y="15.197"/><use xlink:href="#25" y="17.368"/><use xlink:href="#18" y="19.539"/><use xlink:href="#19" y="21.71"/><use xlink:href="#20" y="23.881"/></svg><svg x="8989"><use xlink:href="#a"/><use xlink:href="#b" x="24.996" y="23.856"/><use xlink:href="#1"/><use xlink:href="#2" y="2.171"/><use xlink:href="#6" y="4.342"/><use xlink:href="#9" y="6.513"/><use xlink:href="#26" y="8.684"/><use xlink:href="#22" y="10.855"/><use xlink:href="#15" y="13.026"/><use xlink:href="#16" y="15.197"/><use xlink:href="#25" y="17.368"/><use xlink:href="#18" y="19.539"/><use xlink:href="#19" y="21.71"/><use xlink:href="#20" y="23.881"/></svg><svg x="9090"><use xlink:href="#a"/><use xlink:href="#b" x="-.004" y="8.659"/><use xlink:href="#1"/><use xlink:href="#2" y="2.171"/><use xlink:href="#6" y="4.342"/><use xlink:href="#9" y="6.513"/></svg><svg x="9191"><use xlink:href="#a"/><use xlink:href="#b" x="13.996" y="8.659"/><use xlink:href="#1"/><use xlink:href="#2" y="2.171"/><use xlink:href="#6" y="4.342"/><use xlink:href="#9" y="6.513"/><use xlink:href="#26" y="8.684"/><use xlink:href="#27" y="10.855"/></svg><svg x="9292"><use xlink:href="#a"/><use xlink:href="#b" x="24.996" y="8.659"/><use xlink:href="#1"/><use xlink:href="#2" y="2.171"/><use xlink:href="#6" y="4.342"/><use xlink:href="#9" y="6.513"/><use xlink:href="#26" y="8.684"/><use xlink:href="#27" y="10.855"/></svg><svg x="9393"><use xlink:href="#a"/><use xlink:href="#b" x="-.004" y="8.659"/><use xlink:href="#1"/><use xlink:href="#2" y="2.171"/><use xlink:href="#6" y="4.342"/><use xlink:href="#9" y="6.513"/></svg><svg x="9494"><use xlink:href="#a"/><use xlink:href="#b" x="59.996" y="8.659"/><use xlink:href="#1"/><use xlink:href="#2" y="2.171"/><use xlink:href="#6" y="4.342"/><use xlink:href="#9" y="6.513"/><use xlink:href="#26" y="8.684"/><use xlink:href="#14" y="10.855"/><use xlink:href="#16" y="13.026"/><use xlink:href="#18" y="15.197"/><use xlink:href="#19" y="17.368"/></svg><svg x="9595"><use xlink:href="#a"/><use xlink:href="#b" x="24.996" y="8.659"/><use xlink:href="#1"/><use xlink:href="#2" y="2.171"/><use xlink:href="#6" y="4.342"/><use xlink:href="#9" y="6.513"/><use xlink:href="#26" y="8.684"/><use xlink:href="#14" y="10.855"/><use xlink:href="#16" y="13.026"/><use xlink:href="#18" y="15.197"/><use xlink:href="#19" y="17.368"/></svg><svg x="9696"><use xlink:href="#a"/><use xlink:href="#b" x="24.996" y="17.343"/><use xlink:href="#1"/><use xlink:href="#2" y="2.171"/><use xlink:href="#6" y="4.342"/><use xlink:href="#9" y="6.513"/><use xlink:href="#26" y="8.684"/><use xlink:href="#14" y="10.855"/><use xlink:href="#16" y="13.026"/><use xlink:href="#18" y="15.197"/><use xlink:href="#19" y="17.368"/></svg><svg x="9797"><use xlink:href="#a"/><use xlink:href="#b" x="-.004" y="8.659"/><use xlink:href="#1"/><use xlink:href="#2" y="2.171"/><use xlink:href="#6" y="4.342"/><use xlink:href="#9" y="6.513"/><use xlink:href="#28" y="8.684"/><use xlink:href="#14" y="10.855"/><use xlink:href="#16" y="13.026"/><use xlink:href="#18" y="15.197"/><use xlink:href="#19" y="17.368"/></svg><svg x="9898"><use xlink:href="#a"/><use xlink:href="#b" x="-.004" y="8.659"/><use xlink:href="#1"/><use xlink:href="#2" y="2.171"/><use xlink:href="#6" y="4.342"/><use xlink:href="#9" y="6.513"/></svg><svg x="9999"><use xlink:href="#a"/><use xlink:href="#b" x="-.004" y="8.659"/><use xlink:href="#1"/><use xlink:href="#2" y="2.171"/><use xlink:href="#6" y="4.342"/><use xlink:href="#9" y="6.513"/><use xlink:href="#28" y="8.684"/><use xlink:href="#27" y="10.855"/></svg><svg x="10100"><use xlink:href="#a"/><use xlink:href="#b" x="25.996" y="8.659"/><use xlink:href="#1"/><use xlink:href="#2" y="2.171"/><use xlink:href="#6" y="4.342"/><use xlink:href="#9" y="6.513"/><use xlink:href="#28" y="8.684"/><use xlink:href="#27" y="10.855"/></svg><svg x="10201"><use xlink:href="#a"/><use xlink:href="#b" x="-.004" y="8.659"/><use xlink:href="#1"/><use xlink:href="#2" y="2.171"/><use xlink:href="#6" y="4.342"/><use xlink:href="#9" y="6.513"/></svg><svg x="10302"><use xlink:href="#a"/><use xlink:href="#b" x="-.004" y="8.659"/><use xlink:href="#1"/><use xlink:href="#2" y="2.171"/><use xlink:href="#6" y="4.342"/><use xlink:href="#9" y="6.513"/><use xlink:href="#28" y="8.684"/><use xlink:href="#24" y="10.855"/></svg><svg x="10403"><use xlink:href="#a"/><use xlink:href="#b" x="25.996" y="8.659"/><use xlink:href="#1"/><use xlink:href="#2" y="2.171"/><use xlink:href="#6" y="4.342"/><use xlink:href="#9" y="6.513"/><use xlink:href="#28" y="8.684"/><use xlink:href="#24" y="10.855"/></svg><svg x="10504"><use xlink:href="#a"/><use xlink:href="#b" x="25.996" y="10.83"/><use xlink:href="#1"/><use xlink:href="#2" y="2.171"/><use xlink:href="#6" y="4.342"/><use xlink:href="#9" y="6.513"/><use xlink:href="#28" y="8.684"/><use xlink:href="#24" y="10.855"/></svg><svg x="10605"><use xlink:href="#a"/><use xlink:href="#b" x="-.004" y="8.659"/><use xlink:href="#1"/><use xlink:href="#2" y="2.171"/><use xlink:href="#6" y="4.342"/><use xlink:href="#9" y="6.513"/><use xlink:href="#29" y="8.684"/><use xlink:href="#24" y="10.855"/></svg><svg x="10706"><use xlink:href="#a"/><use xlink:href="#b" x="13.996" y="8.659"/><use xlink:href="#1"/><use xlink:href="#2" y="2.171"/><use xlink:href="#6" y="4.342"/><use xlink:href="#9" y="6.513"/><use xlink:href="#29" y="8.684"/><use xlink:href="#27" y="10.855"/></svg><svg x="10807"><use xlink:href="#a"/><use xlink:href="#b" x="26.996" y="8.659"/><use xlink:href="#1"/><use xlink:href="#2" y="2.171"/><use xlink:href="#6" y="4.342"/><use xlink:href="#9" y="6.513"/><use xlink:href="#29" y="8.684"/><use xlink:href="#27" y="10.855"/></svg><svg x="10908"><use xlink:href="#a"/><use xlink:href="#b" x="-.004" y="8.659"/><use xlink:href="#1"/><use xlink:href="#2" y="2.171"/><use xlink:href="#6" y="4.342"/><use xlink:href="#9" y="6.513"/></svg><svg x="11009"><use xlink:href="#a"/><use xlink:href="#b" x="57.996" y="8.659"/><use xlink:href="#1"/><use xlink:href="#2" y="2.171"/><use xlink:href="#6" y="4.342"/><use xlink:href="#9" y="6.513"/><use xlink:href="#29" y="8.684"/><use xlink:href="#24" y="10.855"/></svg><svg x="11110"><use xlink:href="#a"/><use xlink:href="#b" x="26.996" y="8.659"/><use xlink:href="#1"/><use xlink:href="#2" y="2.171"/><use xlink:href="#6" y="4.342"/><use xlink:href="#9" y="6.513"/><use xlink:href="#29" y="8.684"/><use xlink:href="#24" y="10.855"/></svg><svg x="11211"><use xlink:href="#a"/><use xlink:href="#b" x="-.004" y="8.659"/><use xlink:href="#1"/><use xlink:href="#2" y="2.171"/><use xlink:href="#6" y="4.342"/><use xlink:href="#9" y="6.513"/></svg><svg x="11312"><use xlink:href="#a"/><use xlink:href="#b" x="-.004" y="10.83"/><use xlink:href="#1"/><use xlink:href="#2" y="2.171"/><use xlink:href="#6" y="4.342"/><use xlink:href="#9" y="6.513"/><use xlink:href="#30" y="8.684"/></svg><svg x="11413"><use xlink:href="#a"/><use xlink:href="#b" x="-.004" y="10.83"/><use xlink:href="#1"/><use xlink:href="#2" y="2.171"/><use xlink:href="#6" y="4.342"/><use xlink:href="#9" y="6.513"/><use xlink:href="#30" y="8.684"/></svg><svg x="11514"><use xlink:href="#a"/><use xlink:href="#b" x="-.004" y="10.83"/><use xlink:href="#1"/><use xlink:href="#2" y="2.171"/><use xlink:href="#6" y="4.342"/><use xlink:href="#9" y="6.513"/><use xlink:href="#30" y="8.684"/></svg><svg x="11615"><use xlink:href="#a"/><use xlink:href="#b" x="-.004" y="10.83"/><use xlink:href="#1"/><use xlink:href="#2" y="2.171"/><use xlink:href="#6" y="4.342"/><use xlink:href="#9" y="6.513"/><use xlink:href="#30" y="8.684"/></svg><svg x="11716"><use xlink:href="#a"/><use xlink:href="#b" x="35.996" y="10.83"/><use xlink:href="#1"/><use xlink:href="#2" y="2.171"/><use xlink:href="#6" y="4.342"/><use xlink:href="#9" y="6.513"/><use xlink:href="#30" y="8.684"/><use xlink:href="#31" y="10.855"/></svg><svg x="11817"><use xlink:href="#a"/><use xlink:href="#b" x="-.004" y="13.001"/><use xlink:href="#1"/><use xlink:href="#2" y="2.171"/><use xlink:href="#6" y="4.342"/><use xlink:href="#9" y="6.513"/><use xlink:href="#30" y="8.684"/><use xlink:href="#31" y="10.855"/></svg><svg x="11918"><use xlink:href="#a"/><use xlink:href="#b" x="-.004" y="13.001"/><use xlink:href="#1"/><use xlink:href="#2" y="2.171"/><use xlink:href="#6" y="4.342"/><use xlink:href="#9" y="6.513"/><use xlink:href="#30" y="8.684"/><use xlink:href="#31" y="10.855"/></svg></svg></g></g></svg></svg>